<svg enable-background="new 0 0 256 256" height="512" viewBox="0 0 256 256" width="512" xmlns="http://www.w3.org/2000/svg"><path d="m188.936 101.151c-27.221 0-49.289-22.067-49.289-49.289 0-1.335.068-2.654.173-3.962l-14.965-13.383-93.743 83.834h187.486l-20.249-18.108c-3.048.589-6.192.908-9.413.908z" fill="#c7d7e5"/><circle cx="125" cy="85.073" fill="#edf4fc" r="12.5"/><path d="m232.521 253.5h-215.331c-3.062 0-5.545-2.483-5.545-5.545s2.483-5.545 5.545-5.545h215.332c3.062 0 5.545 2.483 5.545 5.545-.001 3.062-2.483 5.545-5.546 5.545z" fill="#dae6f1"/><path d="m223.28 242.41h-196.849c-3.062 0-5.545-2.483-5.545-5.545s2.483-5.545 5.545-5.545h196.849c3.062 0 5.545 2.483 5.545 5.545s-2.483 5.545-5.545 5.545z" fill="#c7d7e5"/><g fill="#edf4fc"><path d="m219.121 225.775c0-3.062-2.483-5.545-5.545-5.545h-42.512c-3.062 0-5.545 2.483-5.545 5.545s2.483 5.545 5.545 5.545h42.512c3.062 0 5.545-2.483 5.545-5.545z"/><path d="m151.656 225.775c0-3.062-2.483-5.545-5.545-5.545h-42.511c-3.062 0-5.545 2.483-5.545 5.545s2.483 5.545 5.545 5.545h42.512c3.062 0 5.544-2.483 5.544-5.545z"/><path d="m84.192 225.775c0-3.062-2.483-5.545-5.545-5.545h-42.512c-3.062 0-5.545 2.483-5.545 5.545s2.483 5.545 5.545 5.545h42.512c3.062 0 5.545-2.483 5.545-5.545z"/><path d="m219.121 123.896c0-3.062-2.483-5.545-5.545-5.545h-42.512c-3.062 0-5.545 2.483-5.545 5.545s2.483 5.545 5.545 5.545h42.512c3.062 0 5.545-2.483 5.545-5.545z"/><path d="m151.656 123.896c0-3.062-2.483-5.545-5.545-5.545h-42.511c-3.062 0-5.545 2.483-5.545 5.545s2.483 5.545 5.545 5.545h42.512c3.062 0 5.544-2.483 5.544-5.545z"/><path d="m84.192 123.896c0-3.062-2.483-5.545-5.545-5.545h-42.512c-3.062 0-5.545 2.483-5.545 5.545s2.483 5.545 5.545 5.545h42.512c3.062 0 5.545-2.483 5.545-5.545z"/></g><path d="m213.576 220.23c.052 0 .102.006.154.008v-5.353c0-2.278-1.847-4.125-4.125-4.125h-33.646c-2.278 0-4.125 1.847-4.125 4.125v5.345z" fill="#dae6f1"/><path d="m145.803 220.23v-5.345c0-2.278-1.847-4.125-4.125-4.125h-33.646c-2.278 0-4.125 1.847-4.125 4.125v5.345z" fill="#dae6f1"/><path d="m213.576 129.441h-41.742v5.337c0 2.278 1.847 4.125 4.125 4.125h33.646c2.278 0 4.125-1.847 4.125-4.125v-5.345c-.052.001-.102.008-.154.008z" fill="#dae6f1"/><path d="m103.908 129.441v5.337c0 2.278 1.847 4.125 4.125 4.125h33.646c2.278 0 4.125-1.847 4.125-4.125v-5.337z" fill="#dae6f1"/><path d="m36.443 129.441v5.337c0 2.278 1.847 4.125 4.125 4.125h33.646c2.278 0 4.125-1.847 4.125-4.125v-5.337z" fill="#dae6f1"/><path d="m78.339 220.23v-5.345c0-2.278-1.847-4.125-4.125-4.125h-33.646c-2.278 0-4.125 1.847-4.125 4.125v5.345z" fill="#dae6f1"/><path d="m108.032 210.76h33.383v-71.857h-33.383c-.226 0-.444-.032-.661-.067v71.99c.217-.035.435-.066.661-.066z" fill="#c7d7e5"/><path d="m209.605 138.903h-33.646c-.068 0-.132-.017-.199-.02v71.897c.067-.003.131-.02.199-.02h33.646c.068 0 .132.017.199.02v-71.897c-.067.003-.131.02-.199.02z" fill="#c7d7e5"/><path d="m40.568 210.76h33.383v-71.857h-33.383c-.226 0-.444-.032-.661-.067v71.99c.216-.035.434-.066.661-.066z" fill="#c7d7e5"/><path d="m171.064 118.351h-24.953c3.062 0 5.545 2.483 5.545 5.545s-2.483 5.545-5.545 5.545h-.308v4.841h26.031v-4.841h-.77c-3.062 0-5.545-2.483-5.545-5.545s2.483-5.545 5.545-5.545z" fill="#3a70bf"/><path d="m103.908 134.282v-4.841h-.308c-3.062 0-5.545-2.483-5.545-5.545s2.483-5.545 5.545-5.545h-24.953c3.062 0 5.545 2.483 5.545 5.545s-2.483 5.545-5.545 5.545h-.308v4.841z" fill="#3a70bf"/><path d="m145.803 134.282v.496c0 2.278-1.847 4.125-4.125 4.125h-.263v71.857h.263c2.278 0 4.125 1.847 4.125 4.125v5.345h.308c3.062 0 5.545 2.483 5.545 5.545s-2.483 5.545-5.545 5.545h24.953c-3.062 0-5.545-2.483-5.545-5.545s2.483-5.545 5.545-5.545h.77v-5.345c0-2.278 1.847-4.125 4.125-4.125-.068 0-.132.017-.199.02v-71.897c.067.003.131.02.199.02-2.278 0-4.125-1.847-4.125-4.125v-.496z" fill="#5290db"/><path d="m78.647 231.32h24.953c-3.062 0-5.545-2.483-5.545-5.545s2.483-5.545 5.545-5.545h.308v-5.345c0-2.278 1.847-4.125 4.125-4.125-.226 0-.444.032-.661.067v-71.99c.216.035.435.067.661.067-2.278 0-4.125-1.847-4.125-4.125v-.496h-25.569v.496c0 2.278-1.847 4.125-4.125 4.125h-.263v71.857h.263c2.278 0 4.125 1.847 4.125 4.125v5.345h.308c3.062 0 5.545 2.483 5.545 5.545s-2.483 5.544-5.545 5.544z" fill="#5290db"/><circle cx="188.936" cy="51.862" fill="#70d6f9" r="49.289"/><path d="m142.475 35.396-13.924-12.452c-2.105-1.882-5.288-1.882-7.392 0l-102.061 91.273c-2.283 2.041-2.478 5.547-.437 7.83 2.042 2.284 5.548 2.478 7.83.437l98.365-87.967 14.964 13.383c.347-4.352 1.252-8.544 2.655-12.504z" fill="#edf4fc"/><path d="m210.472 96.205c-3.793 1.846-7.861 3.213-12.122 4.037l24.871 22.242c2.279 2.038 5.784 1.849 7.83-.437 2.041-2.282 1.846-5.788-.437-7.83z" fill="#edf4fc"/><path d="m223.779 37.208-29.215-11.943c-2.074-.848-4.397-.848-6.47 0l-29.215 11.943c-2.189.895-2.189 3.995 0 4.89l29.215 11.943c2.074.848 4.397.848 6.47 0l29.215-11.943c2.189-.895 2.189-3.995 0-4.89z" fill="#5290db"/><path d="m212.533 46.695-17.969 7.346c-2.074.848-4.397.848-6.47 0l-17.969-7.346-2.877 16.99c-.677 3.013.234 6.279 2.191 7.855 13.551 10.912 30.23 10.912 43.781 0 1.957-1.576 2.868-4.842 2.191-7.855z" fill="#3a70bf"/><path d="m157.509 58.572c-2.444.233-4.239 2.425-4.239 4.88v4.419c0 1.296 1.05 2.346 2.346 2.346h4.708c1.296 0 2.346-1.05 2.346-2.346v-4.621c.001-2.748-2.358-4.946-5.161-4.678z" fill="#f5c84c"/><path d="m191.5 54.669c-1.156.023-2.316-.182-3.407-.627l-17.969-7.346-2.877 16.99c-.677 3.013.234 6.279 2.191 7.855 6.827 5.497 14.448 8.222 22.062 8.18z" fill="#29589f"/><path d="m125 100.073c-8.271 0-15-6.729-15-15s6.729-15 15-15 15 6.729 15 15-6.729 15-15 15zm0-25c-5.514 0-10 4.486-10 10s4.486 10 10 10 10-4.486 10-10-4.486-10-10-10z"/><path d="m232.521 256h-215.332c-4.436 0-8.045-3.609-8.045-8.045s3.609-8.045 8.045-8.045h215.332c4.436 0 8.045 3.609 8.045 8.045s-3.609 8.045-8.045 8.045zm-215.332-11.09c-1.679 0-3.045 1.366-3.045 3.045s1.367 3.045 3.045 3.045h215.332c1.679 0 3.045-1.366 3.045-3.045s-1.366-3.045-3.045-3.045z"/><path d="m223.279 244.91h-196.847c-4.436 0-8.045-3.609-8.045-8.045s3.609-8.045 8.045-8.045h196.848c4.436 0 8.045 3.609 8.045 8.045s-3.61 8.045-8.046 8.045zm-196.847-11.09c-1.679 0-3.045 1.366-3.045 3.045s1.366 3.045 3.045 3.045h196.848c1.679 0 3.045-1.366 3.045-3.045s-1.366-3.045-3.045-3.045z"/><path d="m213.576 233.82h-42.512c-4.437 0-8.046-3.609-8.046-8.045s3.609-8.045 8.046-8.045h42.512c4.436 0 8.045 3.609 8.045 8.045s-3.609 8.045-8.045 8.045zm-42.512-11.09c-1.68 0-3.046 1.366-3.046 3.045s1.366 3.045 3.046 3.045h42.512c1.679 0 3.045-1.366 3.045-3.045s-1.366-3.045-3.045-3.045z"/><path d="m146.111 233.82h-42.511c-4.436 0-8.045-3.609-8.045-8.045s3.609-8.045 8.045-8.045h42.512c4.436 0 8.045 3.609 8.045 8.045s-3.61 8.045-8.046 8.045zm-42.511-11.09c-1.679 0-3.045 1.366-3.045 3.045s1.366 3.045 3.045 3.045h42.512c1.679 0 3.045-1.366 3.045-3.045s-1.366-3.045-3.045-3.045z"/><path d="m78.646 233.82h-42.511c-4.436 0-8.045-3.609-8.045-8.045s3.609-8.045 8.045-8.045h42.512c4.437 0 8.046 3.609 8.046 8.045s-3.61 8.045-8.047 8.045zm-42.511-11.09c-1.679 0-3.045 1.366-3.045 3.045s1.366 3.045 3.045 3.045h42.512c1.68 0 3.046-1.366 3.046-3.045s-1.366-3.045-3.046-3.045z"/><path d="m213.576 131.94h-42.512c-4.437 0-8.046-3.609-8.046-8.045s3.609-8.045 8.046-8.045h42.512c4.436 0 8.045 3.609 8.045 8.045s-3.609 8.045-8.045 8.045zm-42.512-11.089c-1.68 0-3.046 1.366-3.046 3.045s1.366 3.045 3.046 3.045h42.512c1.679 0 3.045-1.366 3.045-3.045s-1.366-3.045-3.045-3.045z"/><path d="m146.111 131.94h-42.511c-4.436 0-8.045-3.609-8.045-8.045s3.609-8.045 8.045-8.045h42.512c4.436 0 8.045 3.609 8.045 8.045s-3.61 8.045-8.046 8.045zm-42.511-11.089c-1.679 0-3.045 1.366-3.045 3.045s1.366 3.045 3.045 3.045h42.512c1.679 0 3.045-1.366 3.045-3.045s-1.366-3.045-3.045-3.045z"/><path d="m78.646 131.94h-42.511c-4.436 0-8.045-3.609-8.045-8.045s3.609-8.045 8.045-8.045h42.512c4.437 0 8.046 3.609 8.046 8.045s-3.61 8.045-8.047 8.045zm-42.511-11.089c-1.679 0-3.045 1.366-3.045 3.045s1.366 3.045 3.045 3.045h42.512c1.68 0 3.046-1.366 3.046-3.045s-1.366-3.045-3.046-3.045z"/><path d="m213.729 222.738c-.05 0-.122-.002-.208-.008h-41.688c-1.381 0-2.5-1.119-2.5-2.5v-5.345c0-3.653 2.972-6.625 6.625-6.625h33.646c3.652 0 6.624 2.972 6.624 6.625v5.353c0 .675-.273 1.322-.758 1.793-.466.454-1.091.707-1.741.707zm-.153-.008h.01zm-39.242-5h36.896v-2.845c0-.896-.729-1.625-1.624-1.625h-33.646c-.896 0-1.625.729-1.625 1.625v2.845z"/><path d="m145.804 222.73h-41.896c-1.381 0-2.5-1.119-2.5-2.5v-5.345c0-3.653 2.972-6.625 6.625-6.625h33.646c3.653 0 6.625 2.972 6.625 6.625v5.345c0 1.381-1.119 2.5-2.5 2.5zm-39.397-5h36.896v-2.845c0-.896-.729-1.625-1.625-1.625h-33.646c-.896 0-1.625.729-1.625 1.625z"/><path d="m209.605 141.403h-33.646c-3.653 0-6.625-2.972-6.625-6.625v-5.337c0-1.381 1.119-2.5 2.5-2.5h41.693c.083-.005.158-.007.202-.007.654 0 1.283.256 1.751.715.479.47.749 1.113.749 1.785v5.345c0 3.652-2.971 6.624-6.624 6.624zm-35.271-9.463v2.837c0 .896.729 1.625 1.625 1.625h33.646c.896 0 1.624-.729 1.624-1.625v-2.837z"/><path d="m141.679 141.403h-33.646c-3.653 0-6.625-2.972-6.625-6.625v-5.337c0-1.381 1.119-2.5 2.5-2.5h41.896c1.381 0 2.5 1.119 2.5 2.5v5.337c0 3.653-2.972 6.625-6.625 6.625zm-35.272-9.463v2.837c0 .896.729 1.625 1.625 1.625h33.646c.896 0 1.625-.729 1.625-1.625v-2.837z"/><path d="m74.214 141.403h-33.646c-3.653 0-6.625-2.972-6.625-6.625v-5.337c0-1.381 1.119-2.5 2.5-2.5h41.896c1.381 0 2.5 1.119 2.5 2.5v5.337c0 3.653-2.972 6.625-6.625 6.625zm-35.271-9.463v2.837c0 .896.729 1.625 1.625 1.625h33.646c.896 0 1.625-.729 1.625-1.625v-2.837z"/><path d="m78.339 222.73h-41.896c-1.381 0-2.5-1.119-2.5-2.5v-5.345c0-3.653 2.972-6.625 6.625-6.625h33.646c3.653 0 6.625 2.972 6.625 6.625v5.345c0 1.381-1.119 2.5-2.5 2.5zm-39.396-5h36.896v-2.845c0-.896-.729-1.625-1.625-1.625h-33.646c-.896 0-1.625.729-1.625 1.625z"/><path d="m197.98 201.628c-1.381 0-2.5-1.119-2.5-2.5v-46.825c0-1.381 1.119-2.5 2.5-2.5s2.5 1.119 2.5 2.5v46.825c0 1.381-1.119 2.5-2.5 2.5z"/><path d="m187.584 201.628c-1.381 0-2.5-1.119-2.5-2.5v-46.825c0-1.381 1.119-2.5 2.5-2.5s2.5 1.119 2.5 2.5v46.825c0 1.381-1.119 2.5-2.5 2.5z"/><path d="m129.592 201.628c-1.381 0-2.5-1.119-2.5-2.5v-46.825c0-1.381 1.119-2.5 2.5-2.5s2.5 1.119 2.5 2.5v46.825c0 1.381-1.119 2.5-2.5 2.5z"/><path d="m119.195 201.628c-1.381 0-2.5-1.119-2.5-2.5v-46.825c0-1.381 1.119-2.5 2.5-2.5s2.5 1.119 2.5 2.5v46.825c0 1.381-1.119 2.5-2.5 2.5z"/><path d="m62.127 201.628c-1.381 0-2.5-1.119-2.5-2.5v-46.825c0-1.381 1.119-2.5 2.5-2.5s2.5 1.119 2.5 2.5v46.825c0 1.381-1.119 2.5-2.5 2.5z"/><path d="m51.73 201.628c-1.381 0-2.5-1.119-2.5-2.5v-46.825c0-1.381 1.119-2.5 2.5-2.5s2.5 1.119 2.5 2.5v46.825c0 1.381-1.119 2.5-2.5 2.5z"/><path d="m107.371 213.327c-.59 0-1.165-.208-1.62-.596-.559-.475-.88-1.171-.88-1.904v-71.99c0-.732.321-1.427.878-1.902.556-.474 1.295-.684 2.017-.566.088.014.176.034.267.035h33.383c1.381 0 2.5 1.119 2.5 2.5v71.857c0 1.381-1.119 2.5-2.5 2.5h-33.383c-.089.001-.175.021-.261.035-.134.02-.268.031-.401.031zm2.5-5.067h29.044v-66.857h-29.044z"/><path d="m209.804 213.28c-.036 0-.072-.001-.108-.002-.051-.002-.135-.009-.211-.018h-33.409c-.076.008-.16.016-.207.018-.678.028-1.345-.22-1.837-.692-.493-.472-.771-1.124-.771-1.806v-71.897c0-.685.281-1.34.777-1.812s1.148-.729 1.85-.685c.045.002.122.009.191.017h33.41c.071-.007.147-.015.188-.017.699-.045 1.353.212 1.85.685.496.472.777 1.127.777 1.812v71.897c0 .682-.278 1.334-.771 1.806-.467.446-1.087.694-1.729.694zm-31.544-5.02h29.044v-66.857h-29.044z"/><path d="m39.907 213.327c-.589 0-1.164-.208-1.619-.595-.559-.475-.881-1.171-.881-1.905v-71.99c0-.732.321-1.428.879-1.903.557-.475 1.297-.684 2.018-.565.087.014.174.034.265.035h33.383c1.381 0 2.5 1.119 2.5 2.5v71.857c0 1.381-1.119 2.5-2.5 2.5h-33.384c-.089.001-.174.021-.259.034-.133.021-.268.032-.402.032zm2.5-5.067h29.044v-66.857h-29.044z"/><path d="m171.834 136.782h-26.03c-1.381 0-2.5-1.119-2.5-2.5v-4.841c0-1.381 1.119-2.5 2.5-2.5h.308c1.679 0 3.045-1.366 3.045-3.045s-1.366-3.045-3.045-3.045c-1.381 0-2.5-1.119-2.5-2.5s1.119-2.5 2.5-2.5h24.953c1.381 0 2.5 1.119 2.5 2.5s-1.119 2.5-2.5 2.5c-1.68 0-3.046 1.366-3.046 3.045s1.366 3.045 3.046 3.045h.77c1.381 0 2.5 1.119 2.5 2.5v4.841c-.001 1.381-1.12 2.5-2.501 2.5zm-23.53-5 21.03-.029c-3.607-.793-6.315-4.015-6.315-7.857 0-1.077.213-2.105.599-3.045h-10.06c.386.94.599 1.968.599 3.045 0 3.676-2.479 6.785-5.853 7.741z"/><path d="m103.907 136.782h-25.568c-1.381 0-2.5-1.119-2.5-2.5v-4.841c0-1.381 1.119-2.5 2.5-2.5h.308c1.68 0 3.046-1.366 3.046-3.045s-1.366-3.045-3.046-3.045c-1.381 0-2.5-1.119-2.5-2.5s1.119-2.5 2.5-2.5h24.953c1.381 0 2.5 1.119 2.5 2.5s-1.119 2.5-2.5 2.5c-1.679 0-3.045 1.366-3.045 3.045s1.366 3.045 3.045 3.045h.308c1.381 0 2.5 1.119 2.5 2.5v4.841c-.001 1.381-1.12 2.5-2.501 2.5zm-23.068-5h20.568v-.145c-3.374-.957-5.853-4.065-5.853-7.741 0-1.077.213-2.105.599-3.045h-10.06c.386.94.599 1.968.599 3.045 0 3.676-2.479 6.785-5.854 7.741v.145z"/><path d="m171.064 233.82h-24.953c-1.381 0-2.5-1.119-2.5-2.5s1.119-2.5 2.5-2.5c1.679 0 3.045-1.366 3.045-3.045s-1.366-3.045-3.045-3.045h-.308c-1.381 0-2.5-1.119-2.5-2.5v-5.345c0-.896-.729-1.625-1.625-1.625h-.264c-1.381 0-2.5-1.119-2.5-2.5v-71.857c0-1.381 1.119-2.5 2.5-2.5h.264c.896 0 1.625-.729 1.625-1.625v-.496c0-1.381 1.119-2.5 2.5-2.5h26.03c1.381 0 2.5 1.119 2.5 2.5v.496c0 .811.597 1.484 1.373 1.605.061-.001.118 0 .18.003.056.002.163.013.243.022 1.301.088 2.329 1.171 2.329 2.494 0 .348-.071.679-.199.979v69.898c.128.301.199.632.199.979 0 1.325-1.03 2.409-2.334 2.495-.087.01-.199.021-.257.023-.054.002-.107.002-.161.002-.776.121-1.373.795-1.373 1.605v5.345c0 1.381-1.119 2.5-2.5 2.5h-.77c-1.68 0-3.046 1.366-3.046 3.045s1.366 3.045 3.046 3.045c1.381 0 2.5 1.119 2.5 2.5s-1.118 2.502-2.499 2.502zm-17.506-5h10.06c-.386-.94-.599-1.968-.599-3.045 0-3.842 2.708-7.064 6.315-7.857v-3.033c0-2.692 1.614-5.015 3.926-6.05v-68.007c-1.712-.767-3.042-2.239-3.616-4.046h-21.649c-.625 1.966-2.146 3.537-4.079 4.233v67.633c2.556.919 4.389 3.368 4.389 6.237v3.149c3.374.957 5.853 4.065 5.853 7.741-.002 1.077-.215 2.105-.6 3.045z"/><path d="m103.6 233.82h-24.954c-1.381 0-2.5-1.119-2.5-2.5s1.119-2.5 2.5-2.5c1.68 0 3.046-1.366 3.046-3.045s-1.366-3.045-3.046-3.045h-.308c-1.381 0-2.5-1.119-2.5-2.5v-5.345c0-.896-.729-1.625-1.625-1.625h-.263c-1.381 0-2.5-1.119-2.5-2.5v-71.857c0-1.381 1.119-2.5 2.5-2.5h.263c.896 0 1.625-.729 1.625-1.625v-.496c0-1.381 1.119-2.5 2.5-2.5h25.568c1.381 0 2.5 1.119 2.5 2.5v.496c0 .751.513 1.385 1.206 1.57.051.005.102.012.152.02.088.014.176.034.267.035 1.381 0 2.5 1.12 2.5 2.5 0 .653-.251 1.249-.661 1.694v68.469c.41.445.661 1.041.661 1.694 0 1.381-1.119 2.5-2.5 2.5-.089.001-.175.021-.261.035-.054.009-.107.016-.16.021-.692.186-1.204.819-1.204 1.57v5.345c0 1.381-1.119 2.5-2.5 2.5h-.306c-1.679 0-3.045 1.366-3.045 3.045s1.366 3.045 3.045 3.045c1.381 0 2.5 1.119 2.5 2.5s-1.12 2.499-2.5 2.499zm-17.506-5h10.06c-.386-.94-.599-1.968-.599-3.045 0-3.676 2.479-6.785 5.853-7.741v-3.149c0-2.509 1.402-4.697 3.464-5.821v-68.465c-1.488-.811-2.633-2.176-3.154-3.817h-21.189c-.625 1.966-2.145 3.537-4.078 4.232v67.634c2.556.92 4.388 3.368 4.388 6.236v3.149c3.374.957 5.854 4.065 5.854 7.741-.001 1.078-.214 2.106-.599 3.046z"/><path d="m90.199 201.474c-1.381 0-2.5-1.119-2.5-2.5v-47.133c0-1.381 1.119-2.5 2.5-2.5s2.5 1.119 2.5 2.5v47.133c0 1.381-1.119 2.5-2.5 2.5z"/><path d="m158.588 201.474c-1.381 0-2.5-1.119-2.5-2.5v-47.133c0-1.381 1.119-2.5 2.5-2.5s2.5 1.119 2.5 2.5v47.133c0 1.381-1.119 2.5-2.5 2.5z"/><path d="m188.937 103.65c-28.557 0-51.789-23.232-51.789-51.789s23.232-51.788 51.789-51.788c28.556 0 51.788 23.232 51.788 51.789s-23.233 51.788-51.788 51.788zm0-98.577c-25.8 0-46.789 20.989-46.789 46.789s20.989 46.789 46.789 46.789c25.799 0 46.788-20.989 46.788-46.789s-20.99-46.789-46.788-46.789z"/><path d="m22.798 126.392c-2.211 0-4.414-.904-6.001-2.678-2.957-3.307-2.672-8.403.634-11.36l102.062-91.273c3.059-2.734 7.669-2.734 10.726 0l13.925 12.453c.756.676 1.028 1.742.689 2.698-1.348 3.802-2.195 7.794-2.52 11.867-.075.947-.681 1.769-1.562 2.122-.881.354-1.889.176-2.596-.457l-13.299-11.892-96.698 86.476c-1.533 1.369-3.45 2.044-5.36 2.044zm102.057-102.36c-.726 0-1.451.259-2.03.776l-102.06 91.273c-1.252 1.12-1.359 3.048-.241 4.3 1.119 1.25 3.05 1.36 4.3.24l98.365-87.967c.949-.849 2.386-.849 3.333 0l11.42 10.212c.397-2.274.945-4.514 1.641-6.704l-12.697-11.354c-.579-.517-1.305-.776-2.031-.776z"/><path d="m226.912 126.392c-1.91 0-3.826-.674-5.358-2.044l-24.871-22.241c-.708-.633-.995-1.613-.743-2.529.253-.916 1.003-1.609 1.936-1.79 3.999-.774 7.869-2.063 11.503-3.831.912-.445 2.003-.292 2.761.385l20.142 18.013c3.306 2.957 3.591 8.053.634 11.359-1.589 1.773-3.793 2.678-6.004 2.678zm-23.352-24.845 21.328 19.073c1.251 1.119 3.182 1.012 4.3-.24 1.118-1.251 1.011-3.18-.241-4.299l-18.913-16.914c-2.099.937-4.263 1.731-6.474 2.38z"/><path d="m218.599 120.851h-187.487c-1.036 0-1.966-.64-2.336-1.608-.369-.968-.104-2.064.669-2.755l93.743-83.834c.949-.848 2.386-.849 3.333 0l14.965 13.382c.583.521.889 1.284.826 2.063-.111 1.39-.165 2.621-.165 3.763 0 25.8 20.989 46.789 46.789 46.789 2.972 0 5.979-.291 8.938-.863.761-.147 1.559.07 2.142.591l20.249 18.109c.772.691 1.038 1.787.669 2.755-.37.968-1.299 1.608-2.335 1.608zm-180.941-5h174.395l-14.459-12.931c-2.873.485-5.779.731-8.657.731-28.557 0-51.789-23.232-51.789-51.789 0-.918.03-1.881.093-2.916l-12.385-11.075z"/><path d="m191.328 57.182c-1.416 0-2.833-.275-4.181-.826l-29.216-11.943c-1.941-.793-3.196-2.662-3.196-4.759s1.255-3.965 3.196-4.759l29.215-11.943c2.697-1.104 5.666-1.103 8.363 0l29.216 11.943c1.941.794 3.195 2.662 3.195 4.759 0 2.098-1.254 3.965-3.195 4.759l-29.215 11.942c-1.349.551-2.765.827-4.182.827zm0-30.056c-.775 0-1.551.151-2.29.453l-29.214 11.942c-.054.022-.089.036-.089.131s.035.109.089.131l29.215 11.943c1.478.604 3.104.604 4.578 0l29.216-11.943c.053-.021.088-.036.088-.131s-.035-.109-.088-.131l-29.216-11.943c-.737-.301-1.513-.452-2.289-.452z"/><path d="m157.971 60.65c-1.381 0-2.5-1.119-2.5-2.5v-16.052c0-1.381 1.119-2.5 2.5-2.5s2.5 1.119 2.5 2.5v16.052c0 1.381-1.119 2.5-2.5 2.5z"/><path d="m191.328 82.227c-8.112 0-16.223-2.913-23.459-8.739-2.67-2.15-3.93-6.369-3.076-10.281l2.866-16.929c.127-.748.587-1.398 1.25-1.768.663-.369 1.457-.417 2.161-.129l17.969 7.346c1.477.604 3.104.604 4.578 0l17.969-7.346c.704-.288 1.498-.24 2.161.129s1.123 1.02 1.25 1.768l2.866 16.928c.854 3.912-.405 8.131-3.077 10.282-7.233 5.825-15.347 8.738-23.458 8.739zm-19.261-32.036-2.355 13.912c-.008.043-.016.087-.025.13-.512 2.278.269 4.514 1.318 5.36 12.728 10.248 27.922 10.247 40.646 0 1.052-.846 1.832-3.082 1.319-5.359-.01-.043-.018-.087-.025-.131l-2.355-13.912-15.079 6.164c-2.695 1.102-5.667 1.102-8.362 0z"/><path d="m160.325 72.717h-4.708c-2.673 0-4.847-2.174-4.847-4.846v-4.419c0-3.785 2.855-7.021 6.501-7.369 2.019-.192 4.044.477 5.542 1.838 1.498 1.362 2.357 3.305 2.357 5.329v4.621c.001 2.672-2.173 4.846-4.845 4.846zm-4.554-5h4.4v-4.467c0-.628-.256-1.207-.721-1.629-.465-.421-1.06-.623-1.704-.56-1.107.105-1.976 1.156-1.976 2.391v4.265zm1.738-9.145h.01z"/><path d="m191.327 82.221c-8.252 0-16.359-3.018-23.458-8.733-2.67-2.15-3.93-6.369-3.076-10.281l2.866-16.929c.127-.748.587-1.398 1.25-1.768.663-.369 1.457-.417 2.161-.129l17.969 7.346c.76.311 1.6.461 2.41.442.654-.026 1.321.244 1.801.714s.75 1.114.75 1.786v25.052c0 1.375-1.111 2.492-2.486 2.5-.062 0-.125 0-.187 0zm-19.26-32.03-2.355 13.912c-.008.043-.016.087-.025.13-.512 2.278.269 4.514 1.318 5.36 5.521 4.445 11.696 7.022 17.995 7.534v-20.199c-.632-.135-1.251-.326-1.854-.573z"/><path d="m233.529 156.948h-2.07v-2.07c0-1.549-1.256-2.805-2.805-2.805s-2.805 1.256-2.805 2.805v2.07h-2.069c-1.549 0-2.805 1.256-2.805 2.805s1.256 2.805 2.805 2.805h2.069v2.07c0 1.549 1.256 2.805 2.805 2.805s2.805-1.256 2.805-2.805v-2.07h2.07c1.549 0 2.805-1.256 2.805-2.805s-1.256-2.805-2.805-2.805z" fill="#3caadc"/><path d="m244.601 135.892c-1.854-.335-3.355 1.052-3.355 2.749 0 1.689 1.483 3.077 3.355 2.749 1.254-.237 2.255-1.37 2.255-2.749-.001-1.351-.979-2.507-2.255-2.749z" fill="#87d147"/><path d="m62.601 36.892c-1.854-.335-3.355 1.052-3.355 2.749 0 1.549 1.249 2.805 2.805 2.805 1.569 0 2.805-1.276 2.805-2.805-.001-1.351-.979-2.507-2.255-2.749z" fill="#ef4460"/><path d="m53.164 61.964c-3.995-.744-7.144-3.829-7.904-7.743-.038-.197-.313-.197-.351 0-.76 3.914-3.908 6.999-7.904 7.743-.201.037-.201.306 0 .344 3.995.744 7.144 3.829 7.904 7.743.038.197.313.197.351 0 .76-3.914 3.908-6.999 7.904-7.743.201-.038.201-.307 0-.344z" fill="#f5c84c"/></svg>